# xmcd
#
# Track frame offsets: 
#        150
#        11220
#        37048
#        70103
#        87353
#        98473
#        132165
#        165525
#        181355
#
# Disc length: 2564 seconds
#
# Revision: 1
# Processed by: cddbd v1.5.2PL0 Copyright (c) Steve Scherf et al.
# Submitted via: ExactAudioCopy v0.99pb4
#
DISCID=6d0a0209
DTITLE=Louis Armstrong - I Love Jazz!
DYEAR=2000
DGENRE=Jazz
TTITLE0=I Love Jazz
TTITLE1=Twelfth Street Rag
TTITLE2=Basin Street Blues
TTITLE3=Skokiaan (South African Song)
TTITLE4=Frog-I-More Rag
TTITLE5=Otchi-Tchor-Ni-Ya
TTITLE6=Tenderly - You'll Never Walk Alone
TTITLE7=Pretty Little Missy
TTITLE8=I Love Jazz (Alternative take)
EXTD=YEAR: 2000
EXTT0=
EXTT1=
EXTT2=
EXTT3=
EXTT4=
EXTT5=
EXTT6=
EXTT7=
EXTT8=
PLAYORDER=
